<svg width="67" height="18" viewBox="0 0 67 18" fill="none" xmlns="http://www.w3.org/2000/svg">
<path d="M6.85453e-07 3.04261V0H14.3352V3.04261H8.99148V17.4545H5.34375V3.04261H6.85453e-07ZM20.0442 17.7102C18.7203 17.7102 17.5754 17.429 16.6095 16.8665C15.6493 16.2983 14.9078 15.5085 14.3851 14.4972C13.8624 13.4801 13.601 12.3011 13.601 10.9602C13.601 9.60795 13.8624 8.42614 14.3851 7.41477C14.9078 6.39773 15.6493 5.60795 16.6095 5.04545C17.5754 4.47727 18.7203 4.19318 20.0442 4.19318C21.368 4.19318 22.5101 4.47727 23.4703 5.04545C24.4362 5.60795 25.1805 6.39773 25.7033 7.41477C26.226 8.42614 26.4874 9.60795 26.4874 10.9602C26.4874 12.3011 26.226 13.4801 25.7033 14.4972C25.1805 15.5085 24.4362 16.2983 23.4703 16.8665C22.5101 17.429 21.368 17.7102 20.0442 17.7102ZM20.0612 14.8977C20.6635 14.8977 21.1663 14.7273 21.5697 14.3864C21.9732 14.0398 22.2771 13.5682 22.4817 12.9716C22.6919 12.375 22.797 11.696 22.797 10.9347C22.797 10.1733 22.6919 9.49432 22.4817 8.89773C22.2771 8.30114 21.9732 7.82955 21.5697 7.48295C21.1663 7.13636 20.6635 6.96307 20.0612 6.96307C19.4533 6.96307 18.9419 7.13636 18.5271 7.48295C18.118 7.82955 17.8084 8.30114 17.5982 8.89773C17.3936 9.49432 17.2913 10.1733 17.2913 10.9347C17.2913 11.696 17.3936 12.375 17.5982 12.9716C17.8084 13.5682 18.118 14.0398 18.5271 14.3864C18.9419 14.7273 19.4533 14.8977 20.0612 14.8977ZM36.643 11.8807V4.36364H40.2737V17.4545H36.7879V15.0767H36.6516C36.3561 15.8438 35.8646 16.4602 35.1771 16.9261C34.4953 17.392 33.6629 17.625 32.68 17.625C31.805 17.625 31.0351 17.4261 30.3703 17.0284C29.7055 16.6307 29.1857 16.0653 28.8107 15.3324C28.4413 14.5994 28.2538 13.7216 28.2482 12.6989V4.36364H31.8788V12.0511C31.8845 12.8239 32.0919 13.4347 32.501 13.8835C32.9101 14.3324 33.4584 14.5568 34.1459 14.5568C34.5834 14.5568 34.9925 14.4574 35.3732 14.2585C35.7538 14.054 36.0607 13.7528 36.2936 13.3551C36.5322 12.9574 36.6487 12.4659 36.643 11.8807ZM42.5778 17.4545V4.36364H46.0977V6.64773H46.2341C46.4727 5.83523 46.8733 5.22159 47.4358 4.80682C47.9983 4.38636 48.646 4.17614 49.379 4.17614C49.5608 4.17614 49.7568 4.1875 49.967 4.21023C50.1773 4.23295 50.3619 4.2642 50.521 4.30398V7.52557C50.3506 7.47443 50.1148 7.42898 49.8136 7.3892C49.5125 7.34943 49.2369 7.32955 48.9869 7.32955C48.4528 7.32955 47.9756 7.44602 47.5551 7.67898C47.1403 7.90625 46.8108 8.22443 46.5665 8.63352C46.3278 9.04261 46.2085 9.5142 46.2085 10.0483V17.4545H42.5778ZM55.3266 0L58.8464 5.94886H58.9828L62.5197 0H66.6874L61.3607 8.72727L66.8067 17.4545H62.5624L58.9828 11.4972H58.8464L55.2669 17.4545H51.0396L56.5027 8.72727L51.1419 0H55.3266Z" fill="#FF383C"/>
</svg>
